<svg xmlns="http://www.w3.org/2000/svg" aria-label="Claude Malaysia" viewBox="0 0 200 200"><title>Claude Malaysia</title><rect width="200" height="200" rx="40" fill="#D97757"/><g fill="#ffffff"><path d="m77.09 25.001-.402.212c-6.38 3.376-12.154 7.223-17.556 12.01a31 31 0 0 1-1.023.834c-.518.42-.926.842-1.35 1.353a25 25 0 0 1-1.795 1.898c-1.249 1.235-2.295 2.622-3.359 4.016q-.43.56-.868 1.116c-8.761 11.315-14.573 26.643-14.701 41.01l-.007.675c-.162 19.191 6.045 38.72 19.314 52.997.285.36.285.36.285.842q.216.094.439.193c.557.306.822.578 1.22 1.073 2.103 2.479 4.464 4.693 7.022 6.692l.555.458c6.823 5.617 14.585 9.726 22.838 12.806q.26.097.526.195c1.02.376 2.05.707 3.091 1.01q.282.083.572.17c2.887.839 5.795 1.463 8.759 1.955l.907.152c18.171 2.906 37.956-2.34 52.86-12.953q1.261-.916 2.498-1.864c0 .724 0 .724-.345 1.155l-.485.478-.533.528-.566.552-.543.54c-10.372 10.226-24.278 16.628-38.525 19.175q-.386.071-.787.142c-8.334 1.46-17.182 1.392-25.5-.142-.272-.048-.545-.099-.827-.15-14.41-2.679-27.485-9.795-38.24-19.625l-.676-.598c-14.99-13.423-23.146-33.104-24.405-52.94-.637-13.302 2.72-27.075 8.923-38.826l.306-.58c1.444-2.724 2.985-5.336 4.758-7.861.099-.14.195-.282.297-.427 2.233-3.214 4.618-6.239 7.307-9.082a64 64 0 0 0 1.025-1.124A55.5 55.5 0 0 1 59.727 33.2c.251-.166.502-.332.76-.506a67.8 67.8 0 0 1 11.24-6.02q.854-.358 1.698-.728l1.12-.477c.086-.039.086-.039.523-.23 1.217-.506 1.217-.506 2.023-.238"/><path d="M119.776 27.171c.483.724.483.724.41 1.339l-.19.803c-.396 1.782-.695 3.574-.975 5.38-.045.297-.091.593-.14.9q-.225 1.457-.446 2.913l-.08.518a1850 1850 0 0 0-1.306 8.665c-1.758 11.769-3.232 23.576-4.688 35.386q-.09.712-.176 1.42-.275 2.214-.545 4.423-.268 2.168-.546 4.331c-.024.184-.045.367-.072.557-.058.459-.123.914-.186 1.373q-.047.348-.098.709l-.126.496-.482.242c-.974-6.693-1.932-13.387-2.752-20.099-.026-.2-.05-.398-.075-.603q-.19-1.552-.378-3.103c-.027-.21-.05-.42-.077-.637q-.08-.641-.157-1.278a1058 1058 0 0 0-2.593-19.63 5081 5081 0 0 0-2.074-14.59q-.23-1.615-.465-3.23-.119-.834-.236-1.666l-.111-.755c-.174-1.223-.287-2.39-.246-3.622 4.934-2.86 13.71-2.947 18.81-.242m54.02 68.972c1.739 2.61.994 8.682.408 11.696-.24 1.12-.536 2.42-1.373 3.256-2.088.181-4.14-.176-6.193-.506q-.528-.083-1.056-.164-1.434-.225-2.867-.456l-2.426-.384a3938 3938 0 0 1-20.496-3.299c-.237-.038-.47-.077-.714-.115-15.582-2.537-15.582-2.537-20.704-3.591q-.476-.098-.95-.193l-2.23-.456v-.482c9.421-1.15 18.872-2.03 28.323-2.918q2.434-.23 4.87-.46 4.967-.468 9.935-.932 1.784-.165 3.567-.335 2.109-.199 4.218-.393l1.563-.147 2.15-.198q.31-.032.63-.063c1.153-.101 2.207-.132 3.345.14m-34.068-52.43c.996.124 1.551.558 2.296 1.185q.201.163.41.33.416.336.825.675.529.428 1.073.842c1.305 1.003 2.397 2.047 3.42 3.338l.576.72c1.86 2.383 1.86 2.383 1.835 3.38a10.4 10.4 0 0 1-1.176 1.355l-.746.771c-.125.13-.248.258-.378.391-.504.533-.963 1.1-1.423 1.671a126 126 0 0 1-2.969 3.524c-.665.774-1.3 1.558-1.9 2.385-.188.248-.379.496-.572.755h-.482q-.09.202-.18.412c-.355.646-.78 1.114-1.284 1.652a53 53 0 0 0-2.26 2.621 55 55 0 0 1-2.305 2.67 68 68 0 0 0-2.812 3.282 131 131 0 0 1-4.905 5.69 24 24 0 0 0-1.642 2.145c-.049.056-.049.056-.287.338h-.483q-.09.198-.18.403c-.362.67-.794 1.232-1.267 1.828q-.254.32-.513.65l-.451.495h-.483l-.161.386c-.442.791-1.025 1.437-1.618 2.115l-.787.907-.407.465c-.519.598-1.03 1.199-1.544 1.802a235 235 0 0 1-3.682 4.213c-.333-.994.063-1.558.482-2.458q.236-.524.475-1.051l.249-.54c.296-.659.58-1.322.865-1.987.823-1.92 1.734-3.79 2.682-5.653q.982-1.936 1.954-3.883.109-.217.221-.444a298 298 0 0 0 2.793-5.72c2.2-4.635 4.471-9.25 6.91-13.768.798-1.49 1.509-3.02 2.228-4.548.747-1.582 1.543-3.13 2.368-4.671 1.063-1.997 2.062-4.023 3.06-6.053q.188-.386.386-.782c.055-.116.055-.116.342-.7.408-.747.589-1.01 1.447-1.137m-72.283-1.108h.482l.265.494c1.199 2.219 2.491 4.367 3.835 6.5.86-1.006 1.502-2.082 2.156-3.227a38 38 0 0 1 2.426-3.767l.482.24-.241 8.2a250 250 0 0 0 7.476-3.376c0 .93-.302 1.244-.83 2.004l-.526.77-.282.412c-.511.757-1.005 1.529-1.497 2.3l-.29.454-.675 1.054c1.671.455 3.355.73 5.064.993.28.046.557.09.844.135l2.05.319v.482l-2.819 1.177c-.265.11-.53.222-.805.335-.258.106-.514.215-.78.326l-.716.296-.668.278-.643.277c-.562.205-.562.205-1.286.205l.835.834q.372.372.733.75c1.046 1.083 2.18 2.019 3.364 2.947.615.533 1.092 1.088 1.58 1.739-4.819-.743-4.819-.743-6.51-1.126-.569-.094-1.114-.085-1.69-.08q.102.322.203.654.372 1.198.738 2.397l.32 1.04q.232.744.459 1.49c.091.301.183.6.28.909.17.745.17.745-.07 1.469l-.584-.54a1520 1520 0 0 0-5.446-5.007c-.441.796-.668 1.58-.89 2.457l-.224.87-.227.908-.453 1.78-.202.795c-.121.468-.263.931-.415 1.39h-.483q-.084-.346-.173-.702l-.637-2.569q-.14-.557-.277-1.114a309 309 0 0 0-.521-2.1c-.294-1.177-.294-1.177-.562-1.715l-.3.316q-.194.202-.395.407c-.127.135-.255.268-.388.408-.364.316-.364.316-.846.316v.482c-.372.367-.372.367-.873.784a25 25 0 0 0-1.872 1.734c-.632.617-.632.617-1.114.617v.483l-.723-.242q.506-1.635 1.017-3.27.173-.557.345-1.114l.497-1.596.157-.504c.369-1.177.369-1.177.636-1.715l-.508.125c-2.547.606-5.115 1.086-7.691 1.563.453-.996 1.126-1.628 1.93-2.351.14-.126.277-.253.419-.384a59 59 0 0 1 3.68-3.053c-.654-.434-1.247-.73-1.965-1.04l-.736-.318q-.374-.163-.767-.33l-.76-.33a113 113 0 0 0-3.248-1.358v-.482l8.2-1.447-2.677-3.902c-.167-.244-.33-.487-.502-.738l-.519-.753c-.402-.636-.402-.636-.643-1.36 1.656.473 3.135 1.175 4.661 1.96l.483.25c.07.035.07.035.429.224.54.26 1.102.477 1.661.701zM55.682 94.984l.921.087q2.337.263 4.669.564.54.072 1.08.14l2.916.379q1.548.2 3.097.403.64.081 1.283.164l.65.084q.991.129 1.985.258 4.472.579 8.947 1.145 1.041.135 2.082.266l1.377.176.682.087 3.309.42a1438 1438 0 0 1 9.041 1.166q1.816.243 3.632.492.563.079 1.126.155.77.102 1.541.212l.88.12.649.148.241.482a780 780 0 0 1-22.734 3.861q-.981.153-1.958.301-.245.039-.5.078c-2.992.46-5.98.94-8.968 1.422l-1.343.217q-2.963.48-5.926.963l-2.452.398q-.571.091-1.139.185c-6.024.99-6.024.99-7.07.292-.222-.772-.222-.772-.393-1.72l-.177-.935c-.547-3.275-1.415-8.836.61-11.737.661-.48 1.139-.352 1.942-.273m58.306 8.876a71 71 0 0 1 6.49 3.55c.728.446 1.461.883 2.195 1.322 2.903 1.736 5.79 3.497 8.679 5.257q1.448.883 2.894 1.763c.231.142.463.282.702.43q2.328 1.414 4.666 2.809c.929.557 1.852 1.128 2.773 1.697a893 893 0 0 0 5.024 3.066q3.3 2.003 6.632 3.952 1.235.726 2.464 1.462.225.13.451.267c.74.442 1.45.902 2.127 1.435-.108 1.445-.552 2.431-1.297 3.663l-.32.54c-1.045 1.696-2.28 3.078-3.688 4.479-.169.176-.335.352-.509.535-1.269 1.322-1.269 1.322-2.144 1.635-1.104-.086-1.59-.506-2.356-1.278-.222-.222-.444-.441-.67-.668l-.717-.73q-.373-.373-.745-.748c-.52-.52-1.042-1.047-1.558-1.572q-.99-1.002-1.985-2-.955-.96-1.907-1.92l-.362-.363c-1.215-1.228-2.404-2.463-3.53-3.775-.712-.805-1.479-1.555-2.246-2.312-.168-.17-.34-.338-.516-.514l-1.616-1.604q-1.067-1.056-2.131-2.117l-.488-.48a51 51 0 0 1-2.674-2.884c-.439-.502-.9-.977-1.377-1.445l-.52-.516c-.175-.169-.348-.34-.527-.516-1.162-1.14-2.281-2.296-3.345-3.53-.583-.664-1.208-1.279-1.84-1.896a50 50 0 0 1-3.135-3.376l-.752-.89q-.176-.203-.352-.413a21 21 0 0 0-1.02-1.049c-.528-.542-.528-.542-.77-1.266m-2.411 1.93c.63.56.952 1.111 1.307 1.871l.325.692c.114.244.225.487.343.738q.358.76.716 1.517l.352.752c.437.92.885 1.828 1.344 2.735l.233.468q.554 1.099 1.115 2.195c2.182 4.295 4.217 8.684 6.142 13.102 1.119 2.556 2.332 5.071 3.528 7.594a752 752 0 0 1 6.246 13.507q.257.571.536 1.131c.091.695.091.695 0 1.447-2.627 2.438-7.563 3.854-11.123 3.92l-.622.018c-.69-.098-.844-.267-1.278-.803-.169-.499-.169-.499-.282-1.085-.046-.224-.09-.446-.135-.678l-.14-.74q-.075-.385-.155-.781-.25-1.295-.496-2.588l-.355-1.823q-.373-1.928-.743-3.854-.463-2.413-.93-4.825c-5.566-28.657-5.566-28.657-5.928-34.51m-2.894-.242h.482a316 316 0 0 1-1.944 10.505q-.071.354-.147.719c-2.298 11.23-4.83 22.42-7.386 33.596l-.365 1.597q-.242 1.07-.492 2.143-.067.303-.14.62c-.197.844-.373 1.457-.86 2.188-3.548.882-8.253-1.609-11.294-3.283-.96-.615-.96-.615-1.247-1.058.087-1.298.47-2.303 1.076-3.432l.258-.497q.409-.78.822-1.558l.528-1.01a717 717 0 0 1 2.246-4.262 351 351 0 0 0 4.249-8.322c1.25-2.52 2.506-5.03 3.832-7.51a167 167 0 0 0 2.428-4.767q.353-.708.71-1.414c.667-1.324 1.333-2.65 1.958-3.996 1.213-2.614 2.537-5.148 3.935-7.67.473-.855.924-1.71 1.35-2.589m-2.17-1.688c0 .724 0 .724-.306 1.107l-.427.41q-.23.228-.468.458l-.501.483c-.335.328-.67.653-1.006.984q-.237.23-.482.472a32 32 0 0 0-1.744 1.93c-.723.827-1.517 1.586-2.3 2.356l-.603.603q-.52.521-1.047 1.037-.24.238-.492.484-.22.219-.448.442c-.454.472-.88.955-1.305 1.45-.897 1.026-1.843 1.993-2.81 2.953l-.545.543q-.579.58-1.162 1.157-.92.918-1.84 1.836l-3.902 3.89q-2.266 2.256-4.531 4.517-.904.901-1.812 1.803-.552.554-1.109 1.107l-.506.504c-.656.656-1.271 1.295-1.845 2.024-.133.161-.263.323-.4.49h-.483l-.241.723h-.482l-.241.723h-.483c-.06.14-.12.278-.18.422-.346.622-.731 1.04-1.267 1.507h-.482l-.166.468c-.316.497-.316.497-.873.692-1.042.073-1.493-.496-2.26-1.143q-.275-.244-.56-.499l-.492-.432c-1.864-1.743-4.931-5.257-5.09-7.873.848-1.893 3.655-2.976 5.356-3.994q.452-.272.904-.545.914-.552 1.828-1.102a726 726 0 0 0 3.719-2.257q.675-.41 1.35-.82l.668-.41 2.106-1.278q.711-.435 1.422-.869l.7-.424q1.874-1.14 3.745-2.286a670 670 0 0 1 5.785-3.5q.818-.488 1.635-.983c8.021-4.824 8.021-4.824 11.957-7.01 1.25-.7 2.484-1.424 3.716-2.15m50.885-31.833c2.554 1.876 4.167 7.24 4.734 10.196.157 1.267.157 1.267.09 1.862-.543.685-1.081.895-1.906 1.143l-.73.227q-.393.116-.796.236c-.275.085-.548.167-.827.254l-1.759.533q-1.384.416-2.766.839l-2.742.839a310 310 0 0 0-6.17 1.944 1234 1234 0 0 1-22.78 7.181q-.667.2-1.33.406-.91.278-1.823.552-.262.08-.53.161a18 18 0 0 1-3.109.637 14.3 14.3 0 0 1 2.621-2.187c.066-.046.066-.046.403-.268q.64-.424 1.288-.846.447-.294.892-.591.873-.576 1.746-1.15 1.12-.739 2.233-1.486a504 504 0 0 1 11.062-7.187 422 422 0 0 0 4.308-2.775 902 902 0 0 1 6.294-4.054 504 504 0 0 0 3.875-2.494q.967-.625 1.934-1.247.773-.503 1.539-1.01.52-.34 1.04-.675l.472-.319c.943-.603 1.616-.909 2.737-.72m-64.882 2.709c.6.224.774.443 1.14.967.126.173.249.35.377.53l.422.618q.241.346.487.704.838 1.226 1.669 2.46l.919 1.357q.306.456.617.912 1.41 2.087 2.836 4.167a448 448 0 0 1 3.514 5.219q.617.925 1.244 1.845c.055.084.055.084.338.499q.322.474.644.94c.472.702.877 1.305.996 2.154-1.351-.735-2.569-1.582-3.799-2.503q-.608-.454-1.22-.907c-.101-.077-.101-.077-.627-.468q-1.492-1.11-2.99-2.211c-.19-.143-.381-.282-.58-.43a302 302 0 0 0-3.79-2.74 256 256 0 0 1-3.48-2.529 208 208 0 0 0-3.678-2.64c-.552-.391-1.061-.77-1.54-1.247.105-1.903 1.849-3.562 3.134-4.824 2.515-1.975 2.515-1.975 3.367-1.873"/></g></svg>